#VRML V2.0 utf8
# SIMPLIFIED PREVIEW: footprint-based XY; estimated height/detail.
Shape { appearance Appearance { material Material { diffuseColor 0.09 0.09 0.10 } } geometry IndexedFaceSet { coord Coordinate { point [ -4.261811 -0.860236 0.059055, 4.261811 -0.860236 0.059055, 4.261811 0.860236 0.059055, -4.261811 0.860236 0.059055, -4.261811 -0.860236 0.452756, 4.261811 -0.860236 0.452756, 4.261811 0.860236 0.452756, -4.261811 0.860236 0.452756 ] } coordIndex [ 0,3,2,1,-1,4,5,6,7,-1,0,1,5,4,-1,1,2,6,5,-1,2,3,7,6,-1,3,0,4,7,-1 ] } }
Shape { appearance Appearance { material Material { diffuseColor 0.09 0.09 0.10 } } geometry IndexedFaceSet { coord Coordinate { point [ -4.261811 0.604331 0.314961, 4.261811 0.604331 0.314961, 4.261811 0.860236 0.314961, -4.261811 0.860236 0.314961, -4.261811 0.604331 3.937008, 4.261811 0.604331 3.937008, 4.261811 0.860236 3.937008, -4.261811 0.860236 3.937008 ] } coordIndex [ 0,3,2,1,-1,4,5,6,7,-1,0,1,5,4,-1,1,2,6,5,-1,2,3,7,6,-1,3,0,4,7,-1 ] } }
Shape { appearance Appearance { material Material { diffuseColor 0.09 0.09 0.10 } } geometry IndexedFaceSet { coord Coordinate { point [ -4.261811 -0.860236 0.314961, 4.261811 -0.860236 0.314961, 4.261811 -0.604331 0.314961, -4.261811 -0.604331 0.314961, -4.261811 -0.860236 3.937008, 4.261811 -0.860236 3.937008, 4.261811 -0.604331 3.937008, -4.261811 -0.604331 3.937008 ] } coordIndex [ 0,3,2,1,-1,4,5,6,7,-1,0,1,5,4,-1,1,2,6,5,-1,2,3,7,6,-1,3,0,4,7,-1 ] } }
Shape { appearance Appearance { material Material { diffuseColor 0.09 0.09 0.10 } } geometry IndexedFaceSet { coord Coordinate { point [ -4.261811 -0.604331 0.314961, -3.868110 -0.604331 0.314961, -3.868110 0.604331 0.314961, -4.261811 0.604331 0.314961, -4.261811 -0.604331 3.937008, -3.868110 -0.604331 3.937008, -3.868110 0.604331 3.937008, -4.261811 0.604331 3.937008 ] } coordIndex [ 0,3,2,1,-1,4,5,6,7,-1,0,1,5,4,-1,1,2,6,5,-1,2,3,7,6,-1,3,0,4,7,-1 ] } }
Shape { appearance Appearance { material Material { diffuseColor 0.09 0.09 0.10 } } geometry IndexedFaceSet { coord Coordinate { point [ 3.868110 -0.604331 0.314961, 4.261811 -0.604331 0.314961, 4.261811 0.604331 0.314961, 3.868110 0.604331 0.314961, 3.868110 -0.604331 3.937008, 4.261811 -0.604331 3.937008, 4.261811 0.604331 3.937008, 3.868110 0.604331 3.937008 ] } coordIndex [ 0,3,2,1,-1,4,5,6,7,-1,0,1,5,4,-1,1,2,6,5,-1,2,3,7,6,-1,3,0,4,7,-1 ] } }
Shape { appearance Appearance { material Material { diffuseColor 0.65 0.67 0.70 } } geometry IndexedFaceSet { coord Coordinate { point [ -3.078740 -0.125984 0.433071, -2.826772 -0.125984 0.433071, -2.826772 0.125984 0.433071, -3.078740 0.125984 0.433071, -3.078740 -0.125984 2.716535, -2.826772 -0.125984 2.716535, -2.826772 0.125984 2.716535, -3.078740 0.125984 2.716535 ] } coordIndex [ 0,3,2,1,-1,4,5,6,7,-1,0,1,5,4,-1,1,2,6,5,-1,2,3,7,6,-1,3,0,4,7,-1 ] } }
Shape { appearance Appearance { material Material { diffuseColor 0.65 0.67 0.70 } } geometry IndexedFaceSet { coord Coordinate { point [ -3.078740 -1.535433 0.019685, -2.826772 -1.535433 0.019685, -2.826772 -0.039370 0.019685, -3.078740 -0.039370 0.019685, -3.078740 -1.535433 0.161417, -2.826772 -1.535433 0.161417, -2.826772 -0.039370 0.161417, -3.078740 -0.039370 0.161417 ] } coordIndex [ 0,3,2,1,-1,4,5,6,7,-1,0,1,5,4,-1,1,2,6,5,-1,2,3,7,6,-1,3,0,4,7,-1 ] } }
Shape { appearance Appearance { material Material { diffuseColor 0.09 0.09 0.10 } } geometry IndexedFaceSet { coord Coordinate { point [ -2.450787 -0.604331 0.314961, -2.273622 -0.604331 0.314961, -2.273622 0.604331 0.314961, -2.450787 0.604331 0.314961, -2.450787 -0.604331 3.937008, -2.273622 -0.604331 3.937008, -2.273622 0.604331 3.937008, -2.450787 0.604331 3.937008 ] } coordIndex [ 0,3,2,1,-1,4,5,6,7,-1,0,1,5,4,-1,1,2,6,5,-1,2,3,7,6,-1,3,0,4,7,-1 ] } }
Shape { appearance Appearance { material Material { diffuseColor 0.65 0.67 0.70 } } geometry IndexedFaceSet { coord Coordinate { point [ -1.897638 -0.125984 0.433071, -1.645669 -0.125984 0.433071, -1.645669 0.125984 0.433071, -1.897638 0.125984 0.433071, -1.897638 -0.125984 2.716535, -1.645669 -0.125984 2.716535, -1.645669 0.125984 2.716535, -1.897638 0.125984 2.716535 ] } coordIndex [ 0,3,2,1,-1,4,5,6,7,-1,0,1,5,4,-1,1,2,6,5,-1,2,3,7,6,-1,3,0,4,7,-1 ] } }
Shape { appearance Appearance { material Material { diffuseColor 0.65 0.67 0.70 } } geometry IndexedFaceSet { coord Coordinate { point [ -1.897638 -1.535433 0.019685, -1.645669 -1.535433 0.019685, -1.645669 -0.039370 0.019685, -1.897638 -0.039370 0.019685, -1.897638 -1.535433 0.161417, -1.645669 -1.535433 0.161417, -1.645669 -0.039370 0.161417, -1.897638 -0.039370 0.161417 ] } coordIndex [ 0,3,2,1,-1,4,5,6,7,-1,0,1,5,4,-1,1,2,6,5,-1,2,3,7,6,-1,3,0,4,7,-1 ] } }
Shape { appearance Appearance { material Material { diffuseColor 0.09 0.09 0.10 } } geometry IndexedFaceSet { coord Coordinate { point [ -1.269685 -0.604331 0.314961, -1.092520 -0.604331 0.314961, -1.092520 0.604331 0.314961, -1.269685 0.604331 0.314961, -1.269685 -0.604331 3.937008, -1.092520 -0.604331 3.937008, -1.092520 0.604331 3.937008, -1.269685 0.604331 3.937008 ] } coordIndex [ 0,3,2,1,-1,4,5,6,7,-1,0,1,5,4,-1,1,2,6,5,-1,2,3,7,6,-1,3,0,4,7,-1 ] } }
Shape { appearance Appearance { material Material { diffuseColor 0.65 0.67 0.70 } } geometry IndexedFaceSet { coord Coordinate { point [ -0.716535 -0.125984 0.433071, -0.464567 -0.125984 0.433071, -0.464567 0.125984 0.433071, -0.716535 0.125984 0.433071, -0.716535 -0.125984 2.716535, -0.464567 -0.125984 2.716535, -0.464567 0.125984 2.716535, -0.716535 0.125984 2.716535 ] } coordIndex [ 0,3,2,1,-1,4,5,6,7,-1,0,1,5,4,-1,1,2,6,5,-1,2,3,7,6,-1,3,0,4,7,-1 ] } }
Shape { appearance Appearance { material Material { diffuseColor 0.65 0.67 0.70 } } geometry IndexedFaceSet { coord Coordinate { point [ -0.716535 -1.535433 0.019685, -0.464567 -1.535433 0.019685, -0.464567 -0.039370 0.019685, -0.716535 -0.039370 0.019685, -0.716535 -1.535433 0.161417, -0.464567 -1.535433 0.161417, -0.464567 -0.039370 0.161417, -0.716535 -0.039370 0.161417 ] } coordIndex [ 0,3,2,1,-1,4,5,6,7,-1,0,1,5,4,-1,1,2,6,5,-1,2,3,7,6,-1,3,0,4,7,-1 ] } }
Shape { appearance Appearance { material Material { diffuseColor 0.09 0.09 0.10 } } geometry IndexedFaceSet { coord Coordinate { point [ -0.088583 -0.604331 0.314961, 0.088583 -0.604331 0.314961, 0.088583 0.604331 0.314961, -0.088583 0.604331 0.314961, -0.088583 -0.604331 3.937008, 0.088583 -0.604331 3.937008, 0.088583 0.604331 3.937008, -0.088583 0.604331 3.937008 ] } coordIndex [ 0,3,2,1,-1,4,5,6,7,-1,0,1,5,4,-1,1,2,6,5,-1,2,3,7,6,-1,3,0,4,7,-1 ] } }
Shape { appearance Appearance { material Material { diffuseColor 0.65 0.67 0.70 } } geometry IndexedFaceSet { coord Coordinate { point [ 0.464567 -0.125984 0.433071, 0.716535 -0.125984 0.433071, 0.716535 0.125984 0.433071, 0.464567 0.125984 0.433071, 0.464567 -0.125984 2.716535, 0.716535 -0.125984 2.716535, 0.716535 0.125984 2.716535, 0.464567 0.125984 2.716535 ] } coordIndex [ 0,3,2,1,-1,4,5,6,7,-1,0,1,5,4,-1,1,2,6,5,-1,2,3,7,6,-1,3,0,4,7,-1 ] } }
Shape { appearance Appearance { material Material { diffuseColor 0.65 0.67 0.70 } } geometry IndexedFaceSet { coord Coordinate { point [ 0.464567 -1.535433 0.019685, 0.716535 -1.535433 0.019685, 0.716535 -0.039370 0.019685, 0.464567 -0.039370 0.019685, 0.464567 -1.535433 0.161417, 0.716535 -1.535433 0.161417, 0.716535 -0.039370 0.161417, 0.464567 -0.039370 0.161417 ] } coordIndex [ 0,3,2,1,-1,4,5,6,7,-1,0,1,5,4,-1,1,2,6,5,-1,2,3,7,6,-1,3,0,4,7,-1 ] } }
Shape { appearance Appearance { material Material { diffuseColor 0.09 0.09 0.10 } } geometry IndexedFaceSet { coord Coordinate { point [ 1.092520 -0.604331 0.314961, 1.269685 -0.604331 0.314961, 1.269685 0.604331 0.314961, 1.092520 0.604331 0.314961, 1.092520 -0.604331 3.937008, 1.269685 -0.604331 3.937008, 1.269685 0.604331 3.937008, 1.092520 0.604331 3.937008 ] } coordIndex [ 0,3,2,1,-1,4,5,6,7,-1,0,1,5,4,-1,1,2,6,5,-1,2,3,7,6,-1,3,0,4,7,-1 ] } }
Shape { appearance Appearance { material Material { diffuseColor 0.65 0.67 0.70 } } geometry IndexedFaceSet { coord Coordinate { point [ 1.645669 -0.125984 0.433071, 1.897638 -0.125984 0.433071, 1.897638 0.125984 0.433071, 1.645669 0.125984 0.433071, 1.645669 -0.125984 2.716535, 1.897638 -0.125984 2.716535, 1.897638 0.125984 2.716535, 1.645669 0.125984 2.716535 ] } coordIndex [ 0,3,2,1,-1,4,5,6,7,-1,0,1,5,4,-1,1,2,6,5,-1,2,3,7,6,-1,3,0,4,7,-1 ] } }
Shape { appearance Appearance { material Material { diffuseColor 0.65 0.67 0.70 } } geometry IndexedFaceSet { coord Coordinate { point [ 1.645669 -1.535433 0.019685, 1.897638 -1.535433 0.019685, 1.897638 -0.039370 0.019685, 1.645669 -0.039370 0.019685, 1.645669 -1.535433 0.161417, 1.897638 -1.535433 0.161417, 1.897638 -0.039370 0.161417, 1.645669 -0.039370 0.161417 ] } coordIndex [ 0,3,2,1,-1,4,5,6,7,-1,0,1,5,4,-1,1,2,6,5,-1,2,3,7,6,-1,3,0,4,7,-1 ] } }
Shape { appearance Appearance { material Material { diffuseColor 0.09 0.09 0.10 } } geometry IndexedFaceSet { coord Coordinate { point [ 2.273622 -0.604331 0.314961, 2.450787 -0.604331 0.314961, 2.450787 0.604331 0.314961, 2.273622 0.604331 0.314961, 2.273622 -0.604331 3.937008, 2.450787 -0.604331 3.937008, 2.450787 0.604331 3.937008, 2.273622 0.604331 3.937008 ] } coordIndex [ 0,3,2,1,-1,4,5,6,7,-1,0,1,5,4,-1,1,2,6,5,-1,2,3,7,6,-1,3,0,4,7,-1 ] } }
Shape { appearance Appearance { material Material { diffuseColor 0.65 0.67 0.70 } } geometry IndexedFaceSet { coord Coordinate { point [ 2.826772 -0.125984 0.433071, 3.078740 -0.125984 0.433071, 3.078740 0.125984 0.433071, 2.826772 0.125984 0.433071, 2.826772 -0.125984 2.716535, 3.078740 -0.125984 2.716535, 3.078740 0.125984 2.716535, 2.826772 0.125984 2.716535 ] } coordIndex [ 0,3,2,1,-1,4,5,6,7,-1,0,1,5,4,-1,1,2,6,5,-1,2,3,7,6,-1,3,0,4,7,-1 ] } }
Shape { appearance Appearance { material Material { diffuseColor 0.65 0.67 0.70 } } geometry IndexedFaceSet { coord Coordinate { point [ 2.826772 -1.535433 0.019685, 3.078740 -1.535433 0.019685, 3.078740 -0.039370 0.019685, 2.826772 -0.039370 0.019685, 2.826772 -1.535433 0.161417, 3.078740 -1.535433 0.161417, 3.078740 -0.039370 0.161417, 2.826772 -0.039370 0.161417 ] } coordIndex [ 0,3,2,1,-1,4,5,6,7,-1,0,1,5,4,-1,1,2,6,5,-1,2,3,7,6,-1,3,0,4,7,-1 ] } }
Shape { appearance Appearance { material Material { diffuseColor 0.65 0.67 0.70 } } geometry IndexedFaceSet { coord Coordinate { point [ -5.072835 -0.104331 0.017717, -3.891732 -0.104331 0.017717, -3.891732 0.328740 0.017717, -5.072835 0.328740 0.017717, -5.072835 -0.104331 0.155512, -3.891732 -0.104331 0.155512, -3.891732 0.328740 0.155512, -5.072835 0.328740 0.155512 ] } coordIndex [ 0,3,2,1,-1,4,5,6,7,-1,0,1,5,4,-1,1,2,6,5,-1,2,3,7,6,-1,3,0,4,7,-1 ] } }
Shape { appearance Appearance { material Material { diffuseColor 0.65 0.67 0.70 } } geometry IndexedFaceSet { coord Coordinate { point [ 3.891732 -0.104331 0.017717, 5.072835 -0.104331 0.017717, 5.072835 0.328740 0.017717, 3.891732 0.328740 0.017717, 3.891732 -0.104331 0.155512, 5.072835 -0.104331 0.155512, 5.072835 0.328740 0.155512, 3.891732 0.328740 0.155512 ] } coordIndex [ 0,3,2,1,-1,4,5,6,7,-1,0,1,5,4,-1,1,2,6,5,-1,2,3,7,6,-1,3,0,4,7,-1 ] } }
Shape { appearance Appearance { material Material { diffuseColor 0.09 0.09 0.10 } } geometry IndexedFaceSet { coord Coordinate { point [ -0.551181 -1.226378 1.181102, 0.551181 -1.226378 1.181102, 0.551181 -0.860236 1.181102, -0.551181 -0.860236 1.181102, -0.551181 -1.226378 1.968504, 0.551181 -1.226378 1.968504, 0.551181 -0.860236 1.968504, -0.551181 -0.860236 1.968504 ] } coordIndex [ 0,3,2,1,-1,4,5,6,7,-1,0,1,5,4,-1,1,2,6,5,-1,2,3,7,6,-1,3,0,4,7,-1 ] } }
