#VRML V2.0 utf8
# SIMPLIFIED PREVIEW: footprint-based XY; estimated height/detail.
Shape { appearance Appearance { material Material { diffuseColor 0.65 0.67 0.70 } } geometry IndexedFaceSet { coord Coordinate { point [ -1.759843 -1.446850 0.019685, 1.759843 -1.446850 0.019685, 1.759843 1.446850 0.019685, -1.759843 1.446850 0.019685, -1.759843 -1.446850 0.137795, 1.759843 -1.446850 0.137795, 1.759843 1.446850 0.137795, -1.759843 1.446850 0.137795 ] } coordIndex [ 0,3,2,1,-1,4,5,6,7,-1,0,1,5,4,-1,1,2,6,5,-1,2,3,7,6,-1,3,0,4,7,-1 ] } }
Shape { appearance Appearance { material Material { diffuseColor 0.65 0.67 0.70 } } geometry IndexedFaceSet { coord Coordinate { point [ -1.759843 -1.446850 1.141732, 1.759843 -1.446850 1.141732, 1.759843 1.446850 1.141732, -1.759843 1.446850 1.141732, -1.759843 -1.446850 1.259843, 1.759843 -1.446850 1.259843, 1.759843 1.446850 1.259843, -1.759843 1.446850 1.259843 ] } coordIndex [ 0,3,2,1,-1,4,5,6,7,-1,0,1,5,4,-1,1,2,6,5,-1,2,3,7,6,-1,3,0,4,7,-1 ] } }
Shape { appearance Appearance { material Material { diffuseColor 0.65 0.67 0.70 } } geometry IndexedFaceSet { coord Coordinate { point [ -1.759843 -1.446850 0.137795, -1.641732 -1.446850 0.137795, -1.641732 1.446850 0.137795, -1.759843 1.446850 0.137795, -1.759843 -1.446850 1.141732, -1.641732 -1.446850 1.141732, -1.641732 1.446850 1.141732, -1.759843 1.446850 1.141732 ] } coordIndex [ 0,3,2,1,-1,4,5,6,7,-1,0,1,5,4,-1,1,2,6,5,-1,2,3,7,6,-1,3,0,4,7,-1 ] } }
Shape { appearance Appearance { material Material { diffuseColor 0.65 0.67 0.70 } } geometry IndexedFaceSet { coord Coordinate { point [ 1.641732 -1.446850 0.137795, 1.759843 -1.446850 0.137795, 1.759843 1.446850 0.137795, 1.641732 1.446850 0.137795, 1.641732 -1.446850 1.141732, 1.759843 -1.446850 1.141732, 1.759843 1.446850 1.141732, 1.641732 1.446850 1.141732 ] } coordIndex [ 0,3,2,1,-1,4,5,6,7,-1,0,1,5,4,-1,1,2,6,5,-1,2,3,7,6,-1,3,0,4,7,-1 ] } }
Shape { appearance Appearance { material Material { diffuseColor 0.09 0.09 0.10 } } geometry IndexedFaceSet { coord Coordinate { point [ -1.641732 1.230315 0.137795, 1.641732 1.230315 0.137795, 1.641732 1.446850 0.137795, -1.641732 1.446850 0.137795, -1.641732 1.230315 1.141732, 1.641732 1.230315 1.141732, 1.641732 1.446850 1.141732, -1.641732 1.446850 1.141732 ] } coordIndex [ 0,3,2,1,-1,4,5,6,7,-1,0,1,5,4,-1,1,2,6,5,-1,2,3,7,6,-1,3,0,4,7,-1 ] } }
Shape { appearance Appearance { material Material { diffuseColor 0.09 0.09 0.10 } } geometry IndexedFaceSet { coord Coordinate { point [ -1.259843 -1.161417 0.492126, 1.259843 -1.161417 0.492126, 1.259843 1.003937 0.492126, -1.259843 1.003937 0.492126, -1.259843 -1.161417 0.688976, 1.259843 -1.161417 0.688976, 1.259843 1.003937 0.688976, -1.259843 1.003937 0.688976 ] } coordIndex [ 0,3,2,1,-1,4,5,6,7,-1,0,1,5,4,-1,1,2,6,5,-1,2,3,7,6,-1,3,0,4,7,-1 ] } }
Shape { appearance Appearance { material Material { diffuseColor 0.65 0.67 0.70 } } geometry IndexedFaceSet { coord Coordinate { point [ -2.405512 0.907480 0.019685, -1.618110 0.907480 0.019685, -1.618110 1.537402 0.019685, -2.405512 1.537402 0.019685, -2.405512 0.907480 0.137795, -1.618110 0.907480 0.137795, -1.618110 1.537402 0.137795, -2.405512 1.537402 0.137795 ] } coordIndex [ 0,3,2,1,-1,4,5,6,7,-1,0,1,5,4,-1,1,2,6,5,-1,2,3,7,6,-1,3,0,4,7,-1 ] } }
Shape { appearance Appearance { material Material { diffuseColor 0.65 0.67 0.70 } } geometry IndexedFaceSet { coord Coordinate { point [ -2.405512 -0.639764 0.019685, -1.618110 -0.639764 0.019685, -1.618110 -0.009843 0.019685, -2.405512 -0.009843 0.019685, -2.405512 -0.639764 0.137795, -1.618110 -0.639764 0.137795, -1.618110 -0.009843 0.137795, -2.405512 -0.009843 0.137795 ] } coordIndex [ 0,3,2,1,-1,4,5,6,7,-1,0,1,5,4,-1,1,2,6,5,-1,2,3,7,6,-1,3,0,4,7,-1 ] } }
Shape { appearance Appearance { material Material { diffuseColor 0.65 0.67 0.70 } } geometry IndexedFaceSet { coord Coordinate { point [ 1.618110 0.907480 0.019685, 2.405512 0.907480 0.019685, 2.405512 1.537402 0.019685, 1.618110 1.537402 0.019685, 1.618110 0.907480 0.137795, 2.405512 0.907480 0.137795, 2.405512 1.537402 0.137795, 1.618110 1.537402 0.137795 ] } coordIndex [ 0,3,2,1,-1,4,5,6,7,-1,0,1,5,4,-1,1,2,6,5,-1,2,3,7,6,-1,3,0,4,7,-1 ] } }
Shape { appearance Appearance { material Material { diffuseColor 0.65 0.67 0.70 } } geometry IndexedFaceSet { coord Coordinate { point [ 1.618110 -0.639764 0.019685, 2.405512 -0.639764 0.019685, 2.405512 -0.009843 0.019685, 1.618110 -0.009843 0.019685, 1.618110 -0.639764 0.137795, 2.405512 -0.639764 0.137795, 2.405512 -0.009843 0.137795, 1.618110 -0.009843 0.137795 ] } coordIndex [ 0,3,2,1,-1,4,5,6,7,-1,0,1,5,4,-1,1,2,6,5,-1,2,3,7,6,-1,3,0,4,7,-1 ] } }
